# Blender 3.6.5
# www.blender.org
mtllib LED.mtl
o Cube
v -1.000000 0.144321 3.593708
v -1.000000 0.144321 -3.593708
v 1.000000 0.144321 3.593708
v 1.000000 0.144321 -3.593708
v -1.000000 -0.144321 -3.593708
v -1.000000 -0.144321 3.593708
v 1.000000 -0.144321 -3.593708
v 1.000000 -0.144321 3.593708
v -0.694493 -0.047402 -3.320766
v -0.694493 -0.047402 3.320766
v 0.694493 -0.047402 -3.320766
v 0.694493 -0.047402 3.320766
v -0.811908 -0.144321 3.173353
v -0.745033 -0.144321 3.413683
v -0.876531 -0.144321 3.475535
v -0.808635 -0.144321 3.247619
v -0.799136 -0.144321 3.314616
v -0.784341 -0.144321 3.367785
v -0.765699 -0.144321 3.401921
v -0.745033 -0.144321 -3.413683
v -0.811908 -0.144321 -3.173353
v -0.876531 -0.144321 -3.475535
v -0.765699 -0.144321 -3.401921
v -0.784341 -0.144321 -3.367785
v -0.799136 -0.144321 -3.314616
v -0.808635 -0.144321 -3.247619
v 0.745033 -0.144321 3.413683
v 0.811908 -0.144321 3.173353
v 0.876531 -0.144321 3.475535
v 0.765699 -0.144321 3.401921
v 0.784341 -0.144321 3.367785
v 0.799136 -0.144321 3.314616
v 0.808635 -0.144321 3.247619
v 0.811908 -0.144321 -3.173353
v 0.745033 -0.144321 -3.413683
v 0.876531 -0.144321 -3.475535
v 0.808635 -0.144321 -3.247619
v 0.799136 -0.144321 -3.314616
v 0.784341 -0.144321 -3.367785
v 0.765699 -0.144321 -3.401921
v -0.811908 -0.047402 -3.173353
v -0.745033 -0.047402 -3.413683
v -0.746598 -0.047402 -3.362000
v -0.808635 -0.047402 -3.247619
v -0.799136 -0.047402 -3.314616
v -0.784341 -0.047402 -3.367785
v -0.765699 -0.047402 -3.401921
v -0.745033 -0.047402 3.413683
v -0.811908 -0.047402 3.173353
v -0.746598 -0.047402 3.362000
v -0.765699 -0.047402 3.401921
v -0.784341 -0.047402 3.367785
v -0.799136 -0.047402 3.314616
v -0.808635 -0.047402 3.247619
v 0.745033 -0.047402 -3.413683
v 0.811908 -0.047402 -3.173353
v 0.746598 -0.047402 -3.362000
v 0.765699 -0.047402 -3.401921
v 0.784341 -0.047402 -3.367785
v 0.799136 -0.047402 -3.314616
v 0.808635 -0.047402 -3.247619
v 0.811908 -0.047402 3.173353
v 0.745033 -0.047402 3.413683
v 0.746598 -0.047402 3.362000
v 0.808635 -0.047402 3.247619
v 0.799136 -0.047402 3.314616
v 0.784341 -0.047402 3.367785
v 0.765699 -0.047402 3.401921
vn -1.0000 -0.0000 -0.0000
vn -0.0000 -0.0000 -1.0000
vn 1.0000 -0.0000 -0.0000
vn -0.0000 -0.0000 1.0000
vn -0.0000 1.0000 -0.0000
vn -0.0000 -1.0000 -0.0000
vn 0.9990 -0.0000 -0.0440
vn 0.9901 -0.0000 -0.1404
vn 0.9634 -0.0000 -0.2681
vn 0.8776 -0.0000 -0.4793
vn 0.4947 -0.0000 -0.8691
vn -0.9990 -0.0000 -0.0440
vn -0.9901 -0.0000 -0.1404
vn -0.9634 -0.0000 -0.2681
vn -0.8776 -0.0000 -0.4793
vn -0.4947 -0.0000 -0.8691
vn -0.9990 -0.0000 0.0440
vn -0.9901 -0.0000 0.1404
vn -0.9634 -0.0000 0.2681
vn -0.8776 -0.0000 0.4793
vn -0.4947 -0.0000 0.8691
vn 0.9990 -0.0000 0.0440
vn 0.9901 -0.0000 0.1404
vn 0.9634 -0.0000 0.2681
vn 0.8776 -0.0000 0.4793
vn 0.4947 -0.0000 0.8691
vt 0.375000 0.000000
vt 0.625000 0.000000
vt 0.625000 0.250000
vt 0.375000 0.250000
vt 0.625000 0.500000
vt 0.375000 0.500000
vt 0.625000 0.750000
vt 0.375000 0.750000
vt 0.625000 1.000000
vt 0.375000 1.000000
vt 0.138138 0.503097
vt 0.361862 0.503097
vt 0.361862 0.503097
vt 0.875000 0.500000
vt 0.875000 0.750000
vt 0.361862 0.746903
vt 0.138138 0.746903
vt 0.138138 0.746903
vt 0.361862 0.746903
vt 0.371903 0.511679
vt 0.371903 0.738321
vt 0.131979 0.506415
vt 0.131979 0.743585
vt 0.130256 0.745058
vt 0.128097 0.738321
vt 0.128097 0.511679
vt 0.130256 0.504942
vt 0.127033 0.502033
vt 0.127033 0.747967
vt 0.125000 0.750000
vt 0.125000 0.500000
vt 0.368021 0.506415
vt 0.368021 0.743585
vt 0.372967 0.502033
vt 0.372967 0.747967
vt 0.369744 0.504942
vt 0.369744 0.745058
vt 0.130256 0.745058
vt 0.369744 0.504942
vt 0.369744 0.745058
vt 0.128097 0.740973
vt 0.128097 0.743366
vt 0.128097 0.745264
vt 0.128097 0.746483
vt 0.128097 0.746903
vt 0.135035 0.503097
vt 0.132236 0.503097
vt 0.130014 0.503097
vt 0.128588 0.503097
vt 0.128097 0.503097
vt 0.364965 0.746903
vt 0.367764 0.746903
vt 0.369986 0.746903
vt 0.371412 0.746903
vt 0.371903 0.746903
vt 0.371903 0.509027
vt 0.371903 0.506634
vt 0.371903 0.504736
vt 0.371903 0.503517
vt 0.371903 0.503097
vt 0.128097 0.509027
vt 0.128097 0.506634
vt 0.128097 0.504736
vt 0.128097 0.503517
vt 0.135035 0.746903
vt 0.132236 0.746903
vt 0.130014 0.746903
vt 0.128588 0.746903
vt 0.364965 0.503097
vt 0.367764 0.503097
vt 0.369986 0.503097
vt 0.371412 0.503097
vt 0.371903 0.740973
vt 0.371903 0.743366
vt 0.371903 0.745264
vt 0.371903 0.746483
vt 0.128097 0.740973
vt 0.128097 0.743366
vt 0.132236 0.746903
vt 0.371903 0.740973
vt 0.371903 0.743366
vt 0.367764 0.746903
vt 0.364965 0.746903
vt 0.132236 0.503097
s 0
f 6/1/1 1/2/1 2/3/1 5/4/1
f 5/4/2 2/3/2 4/5/2 7/6/2
f 7/6/3 4/5/3 3/7/3 8/8/3
f 8/8/4 3/7/4 1/9/4 6/10/4
f 20/11/4 35/12/4 55/13/4 42/11/4
f 4/5/5 2/14/5 1/15/5 3/7/5
f 27/16/2 14/17/2 48/18/2 63/19/2
f 34/20/1 28/21/1 62/21/1 56/20/1
f 9/22/6 10/23/6 50/24/6 49/25/6 41/26/6 43/27/6
f 22/28/6 21/26/6 13/25/6 15/29/6 6/30/6 5/31/6
f 9/22/6 11/32/6 12/33/6 10/23/6
f 36/34/6 35/13/6 20/11/6 22/28/6 5/31/6 7/6/6
f 29/35/6 28/21/6 34/20/6 36/34/6 7/6/6 8/8/6
f 15/29/6 14/18/6 27/19/6 29/35/6 8/8/6 6/30/6
f 11/32/6 9/22/6 43/27/6 42/11/6 55/12/6 57/36/6
f 10/23/6 12/33/6 64/37/6 63/16/6 48/17/6 50/38/6
f 12/33/6 11/32/6 57/39/6 56/20/6 62/21/6 64/40/6
f 13/25/6 16/41/6 15/29/6
f 16/41/6 17/42/6 15/29/6
f 17/42/6 18/43/6 15/29/6
f 18/43/6 19/44/6 15/29/6
f 19/44/6 14/45/6 15/29/6
f 20/11/6 23/46/6 22/28/6
f 23/46/6 24/47/6 22/28/6
f 24/47/6 25/48/6 22/28/6
f 25/48/6 26/49/6 22/28/6
f 26/49/6 21/50/6 22/28/6
f 27/16/6 30/51/6 29/35/6
f 30/51/6 31/52/6 29/35/6
f 31/52/6 32/53/6 29/35/6
f 32/53/6 33/54/6 29/35/6
f 33/54/6 28/55/6 29/35/6
f 34/20/6 37/56/6 36/34/6
f 37/56/6 38/57/6 36/34/6
f 38/57/6 39/58/6 36/34/6
f 39/58/6 40/59/6 36/34/6
f 40/59/6 35/60/6 36/34/6
f 41/26/6 44/61/6 43/27/6
f 44/61/6 45/62/6 43/27/6
f 45/62/6 46/63/6 43/27/6
f 46/63/6 47/64/6 43/27/6
f 47/64/6 42/50/6 43/27/6
f 48/18/6 51/65/6 50/24/6
f 51/65/6 52/66/6 50/24/6
f 52/66/6 53/67/6 50/24/6
f 53/67/6 54/68/6 50/24/6
f 54/68/6 49/45/6 50/24/6
f 55/13/6 58/69/6 57/39/6
f 58/69/6 59/70/6 57/39/6
f 59/70/6 60/71/6 57/39/6
f 60/71/6 61/72/6 57/39/6
f 61/72/6 56/60/6 57/39/6
f 62/21/6 65/73/6 64/37/6
f 65/73/6 66/74/6 64/37/6
f 66/74/6 67/75/6 64/37/6
f 67/75/6 68/76/6 64/37/6
f 68/76/6 63/55/6 64/37/6
f 13/25/7 49/25/7 54/77/7 16/41/7
f 16/41/8 54/77/8 53/78/8 17/42/8
f 17/42/9 53/78/9 52/66/9 18/79/9
f 18/79/10 52/66/10 51/65/10 19/65/10
f 19/65/11 51/65/11 48/18/11 14/17/11
f 62/21/12 28/21/12 33/80/12 65/73/12
f 65/73/13 33/80/13 32/81/13 66/74/13
f 66/74/14 32/81/14 31/52/14 67/82/14
f 67/82/15 31/52/15 30/51/15 68/83/15
f 68/83/16 30/51/16 27/16/16 63/19/16
f 34/20/17 56/20/17 61/56/17 37/56/17
f 37/56/18 61/56/18 60/57/18 38/57/18
f 38/57/19 60/57/19 59/70/19 39/70/19
f 39/70/20 59/70/20 58/69/20 40/69/20
f 40/69/21 58/69/21 55/13/21 35/12/21
f 41/26/22 21/26/22 26/61/22 44/61/22
f 44/61/23 26/61/23 25/62/23 45/62/23
f 45/62/24 25/62/24 24/47/24 46/84/24
f 46/84/25 24/47/25 23/46/25 47/46/25
f 47/46/26 23/46/26 20/11/26 42/11/26
f 13/25/3 21/26/3 41/26/3 49/25/3
