# Blender 3.6.5
# www.blender.org
mtllib Mirror.mtl
o Cube.007
v -0.084807 2.264116 1.000000
v -0.084807 5.744912 1.000000
v -0.084807 2.264116 -1.000000
v -0.084807 5.744912 -1.000000
v 0.084807 5.744912 -1.000000
v 0.084807 2.264116 -1.000000
v 0.084807 2.264116 1.000000
v 0.084807 5.744912 1.000000
v -0.013086 5.649301 -0.898525
v -0.013086 2.359728 -0.898525
v -0.013086 2.359728 0.898525
v -0.013086 5.649301 0.898525
v 0.045566 2.359728 0.898525
v 0.070169 2.316459 0.944448
v 0.053438 2.353931 0.904678
v 0.062443 2.338094 0.921486
v 0.070169 5.692570 0.944448
v 0.045566 5.649301 0.898525
v 0.062443 5.670935 0.921486
v 0.053438 5.655097 0.904678
v 0.045566 2.359728 -0.898525
v 0.070169 2.316459 -0.944448
v 0.053438 2.353931 -0.904678
v 0.062443 2.338094 -0.921486
v 0.070169 5.692570 -0.944448
v 0.045566 5.649301 -0.898525
v 0.062443 5.670935 -0.921486
v 0.053438 5.655097 -0.904678
vn -1.0000 -0.0000 -0.0000
vn -0.0000 -0.0000 -1.0000
vn 0.3517 -0.9361 -0.0000
vn -0.0000 -1.0000 -0.0000
vn -0.0000 -0.0000 1.0000
vn -0.0000 1.0000 -0.0000
vn 0.3672 -0.0000 -0.9302
vn 0.3672 -0.0000 0.9302
vn 0.9559 0.2938 -0.0000
vn 0.9630 0.2693 -0.0000
vn 0.9598 -0.0000 -0.2808
vn 0.9670 -0.0000 -0.2548
vn 0.9559 -0.2938 -0.0000
vn 0.9630 -0.2693 -0.0000
vn 0.9598 -0.0000 0.2808
vn 0.9670 -0.0000 0.2548
vn 0.8018 -0.0000 0.5976
vn 0.9259 -0.0000 0.3777
vn 0.9197 0.3926 -0.0000
vn 0.7885 0.6151 -0.0000
vn 0.3517 0.9361 -0.0000
vn 0.9197 -0.3926 -0.0000
vn 0.7885 -0.6151 -0.0000
vn 0.9259 -0.0000 -0.3777
vn 0.8018 -0.0000 -0.5976
vt 0.375000 0.000000
vt 0.625000 0.000000
vt 0.625000 0.250000
vt 0.375000 0.250000
vt 0.625000 0.500000
vt 0.375000 0.500000
vt 0.619798 0.505202
vt 0.619798 0.744798
vt 0.619798 0.744798
vt 0.375000 0.750000
vt 0.625000 0.750000
vt 0.625000 1.000000
vt 0.375000 1.000000
vt 0.125000 0.500000
vt 0.125000 0.750000
vt 0.875000 0.500000
vt 0.875000 0.750000
vt 0.380202 0.744798
vt 0.380202 0.744798
vt 0.380202 0.505202
vt 0.619798 0.505202
vt 0.377848 0.502848
vt 0.377848 0.747152
vt 0.622152 0.747152
vt 0.622152 0.502848
vt 0.379991 0.504792
vt 0.620009 0.504792
vt 0.379134 0.503936
vt 0.620866 0.503936
vt 0.379134 0.746064
vt 0.379991 0.745208
vt 0.620866 0.746064
vt 0.620009 0.745209
s 1
f 1/1/1 2/2/1 4/3/1 3/4/1
f 3/4/2 4/3/2 5/5/2 6/6/2
f 26/7/3 18/8/3 12/9/4 9/7/4
f 7/10/5 8/11/5 2/12/5 1/13/5
f 3/14/4 6/6/4 7/10/4 1/15/4
f 5/5/6 4/16/6 2/17/6 8/11/6
f 18/9/7 13/18/7 11/19/2 12/9/2
f 21/20/8 26/21/8 9/7/5 10/20/5
f 22/22/9 14/23/9 7/10/10 6/6/10
f 14/23/11 17/24/11 8/11/12 7/10/12
f 17/24/13 25/25/13 5/5/14 8/11/14
f 25/25/15 22/22/15 6/6/16 5/5/16
f 26/21/8 21/20/8 23/26/17 28/27/17
f 28/27/17 23/26/17 24/28/18 27/29/18
f 27/29/18 24/28/18 22/22/15 25/25/15
f 14/23/9 22/22/9 24/28/19 16/30/19
f 16/30/19 24/28/19 23/26/20 15/31/20
f 15/31/20 23/26/20 21/20/21 13/19/21
f 25/25/13 17/24/13 19/32/22 27/29/22
f 27/29/22 19/32/22 20/33/23 28/27/23
f 28/27/23 20/33/23 18/8/3 26/7/3
f 17/24/11 14/23/11 16/30/24 19/32/24
f 19/32/24 16/30/24 15/31/25 20/33/25
f 20/33/25 15/31/25 13/18/7 18/9/7
f 13/19/21 21/20/21 10/20/6 11/19/6
